# xmcd
#
# Track frame offsets: 
#        150
#        25768
#        47335
#        66644
#        88632
#        108841
#        131335
#        163988
#        180287
#        204510
#
# Disc length: 2969 seconds
#
# Revision: 0
# Processed by: cddbd v1.5.2PL0 Copyright (c) Steve Scherf et al.
# Submitted via: ExactAudioCopy v0.99pb4
#
DISCID=7d0b970a
DTITLE=Camplejohn,John - Live in Nova Scotia CD 1
DYEAR=2010
DGENRE=Blues
TTITLE0=Kokomo Blues
TTITLE1=Pretty Paula Doy
TTITLE2=Knocked down
TTITLE3=Cherokee Boogie
TTITLE4=Sydney Steel
TTITLE5=Land of the livin
TTITLE6=Good to god
TTITLE7=Phonebooth
TTITLE8=Can´t be satisfied
TTITLE9=Nobody´s business
EXTD=
EXTT0=
EXTT1=
EXTT2=
EXTT3=
EXTT4=
EXTT5=
EXTT6=
EXTT7=
EXTT8=
EXTT9=
PLAYORDER=
